# xmcd
#
# Track frame offsets: 
#        150
#        16648
#        34002
#        52414
#        68748
#        87339
#        104668
#        119449
#        136255
#        151942
#
# Disc length: 2181 seconds
#
# Revision: 0
# Processed by: cddbd v1.5.2PL0 Copyright (c) Steve Scherf et al.
# Submitted via: ExactAudioCopy v0.99pb3
#
DISCID=8208830a
DTITLE=ชล อภิชาติ - เบอร์โทรไม่ต้องเบอร์ห้องมีไหม
DYEAR=2007
DGENRE=Country
TTITLE0=เบอร์โทรไม่ต้องเบอร์ห้องมีไหม
TTITLE1=หนุ่มใต้ใจซื่อ
TTITLE2=เห็นต่ายหายเหนื่อย
TTITLE3=ยุคจิ้มยิ้มแต้
TTITLE4=วิวาห์ในฝัน
TTITLE5=ฝากใจไว้กับสาว
TTITLE6=สาวถูกสเปก
TTITLE7=รักสาวโรงงาน
TTITLE8=ตุ๊กตาหน้ารถ
TTITLE9=พ่อสั่งไว้
EXTD=
EXTT0=
EXTT1=
EXTT2=
EXTT3=
EXTT4=
EXTT5=
EXTT6=
EXTT7=
EXTT8=
EXTT9=
PLAYORDER=
